curl_17s
version=1
nRows=256
nColumns=3
inDegrees=yes
endheader
time	r_shoulder_elev	r_elbow_flex
4.3900	20.000000	21.735513
4.4000	20.000000	20.660488
4.4100	20.000000	19.639444
4.4200	20.000000	18.672594
4.4300	20.000000	17.759827
4.4400	20.000000	16.900722
4.4500	20.000000	16.094568
4.4600	20.000000	15.340377
4.4700	20.000000	14.636912
4.4800	20.000000	13.982713
4.4900	20.000000	13.376117
4.5000	20.000000	12.815291
4.5100	20.000000	12.298257
4.5200	20.000000	11.822923
4.5300	20.000000	11.387107
4.5400	20.000000	10.988566
4.5500	20.000000	10.625023
4.5600	20.000000	10.294188
4.5700	20.000000	9.993787
4.5800	20.000000	9.721577
4.5900	20.000000	9.475369
4.6000	20.000000	9.253042
4.6100	20.000000	9.052564
4.6200	20.000000	8.871997
4.6300	20.000000	8.709518
4.6400	20.000000	8.563419
4.6500	20.000000	8.432122
4.6600	20.000000	8.314180
4.6700	20.000000	8.208287
4.6800	20.000000	8.113274
4.6900	20.000000	8.028119
4.7000	20.000000	7.951941
4.7100	20.000000	7.884002
4.7200	20.000000	7.823707
4.7300	20.000000	7.770597
4.7400	20.000000	7.724353
4.7500	20.000000	7.684785
4.7600	20.000000	7.651832
4.7700	20.000000	7.625558
4.7800	20.000000	7.606142
4.7900	20.000000	7.593879
4.8000	20.000000	7.589173
4.8100	20.000000	7.592532
4.8200	20.000000	7.604563
4.8300	20.000000	7.625970
4.8400	20.000000	7.657548
4.8500	20.000000	7.700183
4.8600	20.000000	7.754849
4.8700	20.000000	7.822603
4.8800	20.000000	7.904588
4.8900	20.000000	8.002031
4.9000	20.000000	8.116243
4.9100	20.000000	8.248616
4.9200	20.000000	8.400630
4.9300	20.000000	8.573845
4.9400	20.000000	8.769908
4.9500	20.000000	8.990547
4.9600	20.000000	9.237576
4.9700	20.000000	9.512883
4.9800	20.000000	9.818437
4.9900	20.000000	10.156274
5.0000	20.000000	10.528494
5.0100	20.000000	10.937253
5.0200	20.000000	11.384749
5.0300	20.000000	11.873213
5.0400	20.000000	12.404891
5.0500	20.000000	12.982029
5.0600	20.000000	13.606855
5.0700	20.000000	14.281555
5.0800	20.000000	15.008259
5.0900	20.000000	15.789007
5.1000	20.000000	16.625734
5.1100	20.000000	17.520237
5.1200	20.000000	18.474154
5.1300	20.000000	19.488932
5.1400	20.000000	20.565803
5.1500	20.000000	21.705760
5.1600	20.000000	22.909528
5.1700	20.000000	24.177540
5.1800	20.000000	25.509920
5.1900	20.000000	26.906462
5.2000	20.000000	28.366612
5.2100	20.000000	29.889459
5.2200	20.000000	31.473728
5.2300	20.000000	33.117771
5.2400	20.000000	34.819575
5.2500	20.000000	36.576761
5.2600	20.000000	38.386598
5.2700	20.000000	40.246020
5.2800	20.000000	42.151639
5.2900	20.000000	44.099778
5.3000	20.000000	46.086494
5.3100	20.000000	48.107611
5.3200	20.000000	50.158760
5.3300	20.000000	52.235411
5.3400	20.000000	54.332921
5.3500	20.000000	56.446570
5.3600	20.000000	58.571606
5.3700	20.000000	60.703287
5.3800	20.000000	62.836928
5.3900	20.000000	64.967932
5.4000	20.000000	67.091838
5.4100	20.000000	69.204356
5.4200	20.000000	71.301400
5.4300	20.000000	73.379121
5.4400	20.000000	75.433937
5.4500	20.000000	77.462561
5.4600	20.000000	79.462019
5.4700	20.000000	81.429679
5.4800	20.000000	83.363259
5.4900	20.000000	85.260845
5.5000	20.000000	87.120898
5.5100	20.000000	88.942261
5.5200	20.000000	90.724160
5.5300	20.000000	92.466199
5.5400	20.000000	94.168354
5.5500	20.000000	95.830959
5.5600	20.000000	97.454692
5.5700	20.000000	99.040551
5.5800	20.000000	100.589832
5.5900	20.000000	102.104094
5.6000	20.000000	103.585134
5.6100	20.000000	105.034942
5.6200	20.000000	106.455666
5.6300	20.000000	107.849572
5.6400	20.000000	109.218997
5.6500	20.000000	110.566307
5.6600	20.000000	111.893853
5.6700	20.000000	113.203927
5.6800	20.000000	114.498719
5.6900	20.000000	115.780277
5.7000	20.000000	117.050472
5.7100	20.000000	118.310960
5.7200	20.000000	119.563156
5.7300	20.000000	120.808207
5.7400	20.000000	122.046977
5.7500	20.000000	123.280025
5.7600	20.000000	124.507605
5.7700	20.000000	125.729659
5.7800	20.000000	126.945826
5.7900	20.000000	128.000000
5.8000	20.000000	128.000000
5.8100	20.000000	128.000000
5.8200	20.000000	128.000000
5.8300	20.000000	128.000000
5.8400	20.000000	128.000000
5.8500	20.000000	128.000000
5.8600	20.000000	128.000000
5.8700	20.000000	128.000000
5.8800	20.000000	128.000000
5.8900	20.000000	128.000000
5.9000	20.000000	128.000000
5.9100	20.000000	128.000000
5.9200	20.000000	128.000000
5.9300	20.000000	128.000000
5.9400	20.000000	128.000000
5.9500	20.000000	128.000000
5.9600	20.000000	128.000000
5.9700	20.000000	128.000000
5.9800	20.000000	128.000000
5.9900	20.000000	128.000000
6.0000	20.000000	128.000000
6.0100	20.000000	128.000000
6.0200	20.000000	128.000000
6.0300	20.000000	128.000000
6.0400	20.000000	128.000000
6.0500	20.000000	128.000000
6.0600	20.000000	128.000000
6.0700	20.000000	128.000000
6.0800	20.000000	128.000000
6.0900	20.000000	128.000000
6.1000	20.000000	128.000000
6.1100	20.000000	128.000000
6.1200	20.000000	128.000000
6.1300	20.000000	128.000000
6.1400	20.000000	128.000000
6.1500	20.000000	128.000000
6.1600	20.000000	128.000000
6.1700	20.000000	128.000000
6.1800	20.000000	128.000000
6.1900	20.000000	128.000000
6.2000	20.000000	128.000000
6.2100	20.000000	128.000000
6.2200	20.000000	128.000000
6.2300	20.000000	128.000000
6.2400	20.000000	128.000000
6.2500	20.000000	128.000000
6.2600	20.000000	128.000000
6.2700	20.000000	128.000000
6.2800	20.000000	128.000000
6.2900	20.000000	128.000000
6.3000	20.000000	128.000000
6.3100	20.000000	128.000000
6.3200	20.000000	128.000000
6.3300	20.000000	128.000000
6.3400	20.000000	128.000000
6.3500	20.000000	128.000000
6.3600	20.000000	128.000000
6.3700	20.000000	128.000000
6.3800	20.000000	128.000000
6.3900	20.000000	128.000000
6.4000	20.000000	128.000000
6.4100	20.000000	128.000000
6.4200	20.000000	128.000000
6.4300	20.000000	128.000000
6.4400	20.000000	128.000000
6.4500	20.000000	128.000000
6.4600	20.000000	128.000000
6.4700	20.000000	128.000000
6.4800	20.000000	128.000000
6.4900	20.000000	128.000000
6.5000	20.000000	126.573126
6.5100	20.000000	125.056726
6.5200	20.000000	123.504338
6.5300	20.000000	121.917627
6.5400	20.000000	120.298412
6.5500	20.000000	118.648652
6.5600	20.000000	116.970432
6.5700	20.000000	115.265947
6.5800	20.000000	113.537484
6.5900	20.000000	111.787401
6.6000	20.000000	110.018106
6.6100	20.000000	108.232032
6.6200	20.000000	106.431617
6.6300	20.000000	104.619281
6.6400	20.000000	102.797397
6.6500	20.000000	100.968275
6.6600	20.000000	99.134139
6.6700	20.000000	97.297103
6.6800	20.000000	95.459160
6.6900	20.000000	93.622159
6.7000	20.000000	91.787794
6.7100	20.000000	89.957592
6.7200	20.000000	88.132907
6.7300	20.000000	86.314907
6.7400	20.000000	84.504576
6.7500	20.000000	82.702711
6.7600	20.000000	80.909925
6.7700	20.000000	79.126652
6.7800	20.000000	77.353154
6.7900	20.000000	75.589536
6.8000	20.000000	73.835758
6.8100	20.000000	72.091653
6.8200	20.000000	70.356952
6.8300	20.000000	68.631302
6.8400	20.000000	66.914292
6.8500	20.000000	65.205486
6.8600	20.000000	63.504445
6.8700	20.000000	61.810759
6.8800	20.000000	60.124076
6.8900	20.000000	58.444130
6.9000	20.000000	56.770767
6.9100	20.000000	55.103967
6.9200	20.000000	53.443871
6.9300	20.000000	51.790792
6.9400	20.000000	50.145236
